<?xml version="1.0" encoding="UTF-8"?>
<svg width="506px" height="418px" viewBox="0 0 506 418" version="1.1" xmlns="http://www.w3.org/2000/svg" xmlns:xlink="http://www.w3.org/1999/xlink">
    <title>Shape</title>
    <g id="Page-1" stroke="none" stroke-width="1" fill="none" fill-rule="evenodd">
        <g id="graphic-eight" transform="translate(0.000000, 0.714236)" fill="#F6F6F6" fill-rule="nonzero">
            <path d="M252.875,416.298606 C172.64062,416.298606 110.51562,396.77763 66.5,357.735964 C22.4687533,318.689084 0.458336667,267.923457 0.467833521,205.439084 C0.467833521,164.970337 12.71354,127.87138 37.20312,94.1422138 C61.70312,60.4234671 94.5416633,35.7515904 135.71875,20.1265838 C135.71875,20.1265838 180.572913,0.00519976806 253,1.13686838e-13 C325.406253,1.13686838e-13 370.03125,20.1265838 370.03125,20.1265838 C411.90625,35.7515838 444.916667,60.4234604 469.0625,94.1422138 C493.20312,127.860967 505.276037,164.959924 505.28125,205.439084 C505.28125,267.923464 483.270833,318.68909 439.25,357.735964 C395.218753,396.782837 333.093753,416.30367 252.875,416.298606 Z M252.875,339.62659 C305.406253,339.62659 347.29688,327.381794 378.54688,302.892214 C409.781253,278.392214 425.401043,245.548464 425.40625,204.360964 C425.40625,173.845337 417.59375,147.756794 401.96875,126.095334 C386.34375,104.439087 365.578127,87.9338804 339.67188,76.5797138 C313.75,65.2203338 284.817707,59.5380404 252.875,59.5328338 C221.625,59.5328338 192.869793,65.2151271 166.60938,76.5797138 C140.32812,87.9390871 119.3802,104.444294 103.76562,126.095334 C88.14062,147.751587 80.33333,173.84013 80.3437396,204.360964 C80.3437396,245.548464 95.96354,278.392214 127.20312,302.892214 C158.4375,327.392214 200.328127,339.637004 252.875,339.62659 Z" id="Shape"></path>
        </g>
    </g>
</svg>