<svg id="Layer_1" data-name="Layer 1" xmlns="http://www.w3.org/2000/svg" viewBox="0 0 586 837"><defs><style>.cls-1{fill:none;}.cls-2{isolation:isolate;}.cls-3{fill:#f6f6f6;}</style></defs><title>graphic-eight</title><rect class="cls-1" width="586" height="837"/><g class="cls-2"><path class="cls-3" d="M274.875,748.5127q-120.35157,0-186.375-58.5625Q22.45313,631.37988,22.46875,537.65332q0-60.70312,36.73437-111.29687,36.75-50.57812,98.51563-74.01563-23.4375-8.53125-48.45313-27.15625Q84.23437,306.55177,67.1875,276.2002q-17.03907-30.35157-17.03125-71.89063,0-78.79687,58.04687-128.32812Q166.23437,26.458,274.875,26.4502q108.60938,0,166.67188,49.53125,58.03125,49.52343,58.04687,128.32812,0,41.53125-17.04687,71.89063-17.03907,30.35156-42.0625,48.98437-25.03125,18.63282-48.45313,27.15625,62.8125,23.4375,99.03125,74.01563,36.21093,50.57813,36.21875,111.29687,0,93.72657-66.03125,152.29688Q395.20313,748.52051,274.875,748.5127Zm0-76.67188q78.79688,0,125.67188-36.73437,46.85156-36.75,46.85937-98.53125,0-45.77344-23.4375-78.26563-23.4375-32.48437-62.29687-49.51562-38.88282-17.03907-86.79688-17.04688-46.875,0-86.26562,17.04688-39.42189,17.03906-62.84376,49.51562-23.4375,32.48438-23.42187,78.26563,0,61.78125,46.85937,98.53125Q196.05469,671.85645,274.875,671.84082Zm0-353.57812a209.23437,209.23437,0,0,0,66.5625-11.1875q33.53907-11.17969,55.90625-35.67188,22.35938-24.49218,22.375-62.84375,0-50.03906-40.46875-77.73437-40.47657-27.70312-104.375-27.70313-63.91407,0-104.375,27.70313-40.47657,27.70313-40.46875,77.73437,0,38.34375,22.35937,62.84375Q174.75,295.89552,208.3125,307.0752A209.09056,209.09056,0,0,0,274.875,318.2627Z" transform="translate(18 5.5)"/></g></svg>