<svg id="Layer_1" data-name="Layer 1" xmlns="http://www.w3.org/2000/svg" viewBox="0 0 75.79874 18.74943"><defs><style>.cls-1{fill:#2c1608;}.cls-2{fill:none;stroke:#2c1608;stroke-miterlimit:10;stroke-width:0.6px;}</style></defs><title>gridbase-default</title><path class="cls-1" d="M39.59229,20.667c0,1.35547-1.28321,1.63184-3.10645,1.63184-1.93066,0-3.22607-.58789-3.22607-1.77539,0-.38379.35986-.8877,1.1875-.93555a1.14759,1.14759,0,0,1-.94776-1.15137c0-.32324.312-.85156,1.11572-.83984a2.02349,2.02349,0,0,1-.81591-1.6665c0-1.3794.98339-2.26661,2.71093-2.26661a2.99244,2.99244,0,0,1,1.64307.45557c.34766-.34766.95947-.94726,1.39111-1.30713l.37159.97119c-.32373.18018-.9712.55176-1.28321.73194a2.02605,2.02605,0,0,1,.55176,1.415c0,1.42724-1.19922,2.20654-2.67432,2.20654a3.72805,3.72805,0,0,1-.648-.04785,2.90109,2.90109,0,0,1-.46777-.1084c-.47949-.03516-.81543.168-.81543.45605,0,.57618,1.39111.54,1.90674.54C38.84863,18.97656,39.59229,19.50391,39.59229,20.667Zm-1.07959.0127c0-.43164-.32374-.86426-2.02686-.86426A8.76916,8.76916,0,0,1,34.9751,19.708a.922.922,0,0,0-.68408.81543c0,.708.83984.93554,2.19482.93554C37.92529,21.459,38.5127,21.11133,38.5127,20.67969Zm-3.63379-4.74951c0,.81494.55175,1.30712,1.63134,1.30712,1.40284,0,1.59473-.82714,1.59473-1.30712,0-.4795-.19189-1.36719-1.59473-1.36719C35.44238,14.563,34.87891,15.07861,34.87891,15.93018Z" transform="translate(-6.57626 -7.65851)"/><path class="cls-1" d="M40.772,13.7832h1.05518a2.82044,2.82044,0,0,1,.03613.45606,2.87385,2.87385,0,0,1-.168.95947l.12012.03613a1.82233,1.82233,0,0,1,1.73877-1.57129,1.35455,1.35455,0,0,1,.76758.168V15.043a1.21384,1.21384,0,0,0-.88721-.33594c-.97168,0-1.61914.76758-1.5835,2.458v2.85449H40.772Z" transform="translate(-6.57626 -7.65851)"/><path class="cls-1" d="M46.42285,11.50488v1.499H45.08008v-1.499ZM46.291,13.7832v6.23633H45.21191V13.7832Z" transform="translate(-6.57626 -7.65851)"/><path class="cls-1" d="M47.335,16.88965c0-1.7749,1.0791-3.22608,2.77051-3.22608a2.0901,2.0901,0,0,1,1.99121,1.1875V11.50488h1.0791V19.4082a1.747,1.747,0,0,0,.04785.51563v.0957H52.1084a1.51912,1.51912,0,0,1-.06055-.49121,1.16131,1.16131,0,0,1,.168-.69629l-.11914-.03515a2.06541,2.06541,0,0,1-1.99121,1.34277C48.41406,20.13965,47.335,18.7002,47.335,16.88965Zm4.88086.01172a2.1273,2.1273,0,0,0-1.94238-2.31446c-1.23535,0-1.835.97168-1.835,2.31446,0,1.34375.59961,2.31445,1.835,2.31445A2.12729,2.12729,0,0,0,52.21582,16.90137Z" transform="translate(-6.57626 -7.65851)"/><path class="cls-1" d="M55.39941,18.79688l-.12011.03515a1.23325,1.23325,0,0,1,.168.69629,1.66155,1.66155,0,0,1-.04786.49121H54.28418v-.0957a1.90773,1.90773,0,0,0,.03516-.51563V11.50488h1.08007v3.34619a2.08136,2.08136,0,0,1,1.99024-1.1875c1.57129,0,2.65137,1.45118,2.65137,3.22608,0,1.81055-1.08008,3.25-2.65137,3.25A1.95548,1.95548,0,0,1,55.39941,18.79688Zm3.56153-1.89551c0-1.3667-.623-2.31446-1.73926-2.31446a2.05288,2.05288,0,0,0-1.94238,2.31446,2.05287,2.05287,0,0,0,1.94238,2.31445C58.33789,19.21582,58.96094,18.26855,58.96094,16.90137Z" transform="translate(-6.57626 -7.65851)"/><path class="cls-1" d="M66.26855,19.92383v.0957h-1.0791a1.03579,1.03579,0,0,1-.07226-.49121,1.06724,1.06724,0,0,1,.19238-.67187l-.12012-.03614a2.03707,2.03707,0,0,1-2.00293,1.33106,2.00919,2.00919,0,0,1-2.21875-1.93067c0-1.30761.75586-1.61914,2.627-1.835,1.52246-.17969,1.52246-.62353,1.52246-.62353v-.07178c0-.35986-.09571-1.25928-1.5586-1.25928-1.09179,0-1.63183.59961-1.63183,1.29541l-1.0791.28711a2.44755,2.44755,0,0,1,2.59082-2.48193c2.38672,0,2.75879,1.40283,2.75879,2.42236v3.4541A1.773,1.773,0,0,0,66.26855,19.92383Zm-1.13867-3.5625c0,.24023,0,.76758-1.57129.93555-1.21191.13281-1.51171.28808-1.51171.92382a1.03687,1.03687,0,0,0,1.15136,1.01953c.82813,0,1.93164-.28808,1.93164-1.13964Z" transform="translate(-6.57626 -7.65851)"/><path class="cls-1" d="M72.38867,16.03809l-1.0791-.15577a1.30849,1.30849,0,0,0-1.43945-1.37939c-.83985,0-1.42774.26416-1.42774.81543,0,.50391.28809.76758,1.11621.97168l.38379.0957c1.27051.31153,2.39844.56348,2.39844,1.94336,0,1.21094-1.11523,1.835-2.4707,1.835a2.31627,2.31627,0,0,1-2.50684-2.459l1.0791.15625a1.29389,1.29389,0,0,0,1.42774,1.40332c.80371,0,1.3916-.32422,1.3916-.93555,0-.6123-.63574-.73242-1.63184-.9834l-.25195-.06054c-2.01465-.54-2.01465-1.42676-2.01465-1.9668,0-.93506.792-1.71484,2.50684-1.71484A2.32036,2.32036,0,0,1,72.38867,16.03809Z" transform="translate(-6.57626 -7.65851)"/><path class="cls-1" d="M78.65234,18.19727a2.46,2.46,0,0,1-2.63867,1.94238c-1.73926,0-2.96191-1.17481-2.96191-3.32227,0-1.69043.65918-3.22558,2.80566-3.22558a2.52659,2.52659,0,0,1,2.77051,2.61425,2.53237,2.53237,0,0,1-.084.875l-4.36524.03614c.0957,1.36719.89941,2.11133,1.835,2.11133a1.61928,1.61928,0,0,0,1.667-1.31934Zm-4.44922-1.99122,3.40626-.02441a1.66781,1.66781,0,0,0-1.752-1.67871C74.7666,14.50293,74.31055,15.15088,74.20312,16.20605Z" transform="translate(-6.57626 -7.65851)"/><path class="cls-1" d="M79.48438,11.00049h1.06347v.26806H80.168v1.15137h-.30176V11.26855h-.38183ZM82.375,12.41992h-.30664l-.04395-1.10937-.2998,1.10937h-.42578l-.30371-1.07324-.04981,1.07324h-.30566l.082-1.41943h.46191L81.499,12.106h.01368l.31054-1.10547H82.293Z" transform="translate(-6.57626 -7.65851)"/><path class="cls-2" d="M6.89371,22.22464a4.75538,4.75538,0,1,1,9.51075,0" transform="translate(-6.57626 -7.65851)"/><path class="cls-1" d="M6.57635,22.12058,6.661,26.10794a.30018.30018,0,0,0,.6,0l-.08467-3.98736a.30018.30018,0,0,0-.6,0Z" transform="translate(-6.57626 -7.65851)"/><path class="cls-2" d="M25.859,21.35256a4.75538,4.75538,0,1,1-9.51075,0" transform="translate(-6.57626 -7.65851)"/><path class="cls-1" d="M26.17635,21.45663l-.08467-3.98737a.30018.30018,0,0,0-.6,0l.08467,3.98737a.30018.30018,0,0,0,.6,0Z" transform="translate(-6.57626 -7.65851)"/><path class="cls-2" d="M6.89371,21.0358a4.75538,4.75538,0,1,1,9.51075,0" transform="translate(-6.57626 -7.65851)"/><path class="cls-1" d="M6.57635,20.93173,6.661,24.91909a.30018.30018,0,0,0,.6,0l-.08467-3.98736a.30018.30018,0,0,0-.6,0Z" transform="translate(-6.57626 -7.65851)"/><path class="cls-2" d="M25.859,20.16372a4.75538,4.75538,0,0,1-9.51075,0" transform="translate(-6.57626 -7.65851)"/><path class="cls-1" d="M26.17635,20.26778l-.08467-3.98736a.30018.30018,0,0,0-.6,0l.08467,3.98736a.30018.30018,0,0,0,.6,0Z" transform="translate(-6.57626 -7.65851)"/><path class="cls-2" d="M6.89371,19.847a4.75538,4.75538,0,0,1,9.51075,0" transform="translate(-6.57626 -7.65851)"/><path class="cls-1" d="M6.57635,19.74289,6.661,23.73025a.30018.30018,0,0,0,.6,0l-.08467-3.98736a.30018.30018,0,0,0-.6,0Z" transform="translate(-6.57626 -7.65851)"/><path class="cls-2" d="M25.859,18.97487a4.75538,4.75538,0,1,1-9.51075,0" transform="translate(-6.57626 -7.65851)"/><path class="cls-1" d="M26.17635,19.07894l-.08467-3.98736a.30018.30018,0,0,0-.6,0l.08467,3.98736a.30018.30018,0,0,0,.6,0Z" transform="translate(-6.57626 -7.65851)"/><path class="cls-2" d="M6.89371,18.65811a4.75538,4.75538,0,1,1,9.51075,0" transform="translate(-6.57626 -7.65851)"/><path class="cls-1" d="M6.57635,18.554,6.661,22.54141a.30018.30018,0,0,0,.6,0L7.17635,18.554a.30018.30018,0,0,0-.6,0Z" transform="translate(-6.57626 -7.65851)"/><path class="cls-2" d="M25.859,17.786a4.75538,4.75538,0,1,1-9.51075,0" transform="translate(-6.57626 -7.65851)"/><path class="cls-1" d="M26.17635,17.89009l-.08467-3.98736a.30018.30018,0,0,0-.6,0l.08467,3.98736a.30018.30018,0,0,0,.6,0Z" transform="translate(-6.57626 -7.65851)"/><path class="cls-2" d="M6.89371,17.46926a4.75538,4.75538,0,0,1,9.51075,0" transform="translate(-6.57626 -7.65851)"/><path class="cls-1" d="M6.57635,17.3652,6.661,21.35256a.30018.30018,0,0,0,.6,0L7.17635,17.3652a.30018.30018,0,0,0-.6,0Z" transform="translate(-6.57626 -7.65851)"/><path class="cls-2" d="M25.859,16.59718a4.75538,4.75538,0,1,1-9.51075,0" transform="translate(-6.57626 -7.65851)"/><path class="cls-1" d="M26.17635,16.70125l-.08467-3.98736a.30018.30018,0,0,0-.6,0l.08467,3.98736a.30018.30018,0,0,0,.6,0Z" transform="translate(-6.57626 -7.65851)"/><path class="cls-2" d="M6.89371,16.28042a4.75538,4.75538,0,1,1,9.51075,0" transform="translate(-6.57626 -7.65851)"/><path class="cls-1" d="M6.57635,16.17636,6.661,20.16372a.30018.30018,0,0,0,.6,0l-.08467-3.98736a.30018.30018,0,0,0-.6,0Z" transform="translate(-6.57626 -7.65851)"/><path class="cls-2" d="M25.859,15.40834a4.75538,4.75538,0,1,1-9.51075,0" transform="translate(-6.57626 -7.65851)"/><path class="cls-1" d="M26.17635,15.51241,26.09168,11.525a.30018.30018,0,0,0-.6,0l.08467,3.98737a.30018.30018,0,0,0,.6,0Z" transform="translate(-6.57626 -7.65851)"/><path class="cls-2" d="M6.89371,15.09158a4.75538,4.75538,0,1,1,9.51075,0" transform="translate(-6.57626 -7.65851)"/><path class="cls-1" d="M6.57635,14.98751,6.661,18.97487a.30018.30018,0,0,0,.6,0l-.08467-3.98736a.30018.30018,0,0,0-.6,0Z" transform="translate(-6.57626 -7.65851)"/><path class="cls-2" d="M25.859,14.2195a4.75538,4.75538,0,0,1-9.51075,0" transform="translate(-6.57626 -7.65851)"/><path class="cls-1" d="M26.17635,14.32356l-.08467-3.98736a.30018.30018,0,0,0-.6,0l.08467,3.98736a.30018.30018,0,0,0,.6,0Z" transform="translate(-6.57626 -7.65851)"/><path class="cls-2" d="M6.89371,13.90273a4.75538,4.75538,0,0,1,9.51075,0" transform="translate(-6.57626 -7.65851)"/><path class="cls-1" d="M6.57635,13.79867,6.661,17.786a.30018.30018,0,0,0,.6,0l-.08467-3.98736a.30018.30018,0,0,0-.6,0Z" transform="translate(-6.57626 -7.65851)"/><path class="cls-2" d="M25.859,13.03065a4.75538,4.75538,0,1,1-9.51075,0" transform="translate(-6.57626 -7.65851)"/><path class="cls-1" d="M26.17635,13.13472l-.08467-3.98736a.30018.30018,0,0,0-.6,0l.08467,3.98736a.30018.30018,0,0,0,.6,0Z" transform="translate(-6.57626 -7.65851)"/><path class="cls-2" d="M6.89371,12.71389a4.75538,4.75538,0,1,1,9.51075,0" transform="translate(-6.57626 -7.65851)"/><path class="cls-1" d="M6.57635,12.60982,6.661,16.59718a.30018.30018,0,0,0,.6,0l-.08467-3.98736a.30018.30018,0,0,0-.6,0Z" transform="translate(-6.57626 -7.65851)"/><path class="cls-2" d="M25.859,11.84181a4.75538,4.75538,0,0,1-9.51075,0" transform="translate(-6.57626 -7.65851)"/><path class="cls-1" d="M26.17635,11.94587l-.08467-3.98736a.30018.30018,0,0,0-.6,0l.08467,3.98736a.30018.30018,0,0,0,.6,0Z" transform="translate(-6.57626 -7.65851)"/></svg>