<?xml version="1.0" encoding="UTF-8"?>
<svg width="1047px" height="824px" viewBox="0 0 1047 824" version="1.1" xmlns="http://www.w3.org/2000/svg" xmlns:xlink="http://www.w3.org/1999/xlink">
    <title>SCSS Widow</title>
    <g id="HOME" stroke="none" stroke-width="1" fill="none" fill-rule="evenodd">
        <g id="SCSS-Widow" transform="translate(0.000000, 0.000000)">
            <rect id="Rectangle" stroke="#C2C2C2" stroke-width="3.99165" fill="#0B0B0B" x="1.995825" y="1.995825" width="1043.00835" height="819.031147" rx="30.9621717"></rect>
            <path d="M3.86864677,193.203083 L112.196594,193.203083 L112.196594,819.474668 C86.5346039,819.474668 69.0688697,819.474668 59.7993916,819.474668 C47.1969284,819.474668 38.326053,819.474668 30.9676056,819.474668 C30.9676056,819.474668 30.9676056,819.474668 30.9676056,819.474668 C16.0012536,819.474668 3.86862807,807.342042 3.86864677,792.37569 L3.86864677,193.203083 L3.86864677,193.203083 Z" id="Code-Count-Side-Bar" fill="#1F1F1F"></path>
            <text id="1" font-family="MesloLGS-NF-Regular, MesloLGS NF" font-size="58.0540719" font-weight="normal" letter-spacing="4.00372939" fill="#575757">
                <tspan x="44.3583788" y="315.664308">1</tspan>
            </text>
            <text id="2" font-family="MesloLGS-NF-Regular, MesloLGS NF" font-size="58.0540719" font-weight="normal" letter-spacing="4.00372939" fill="#575757">
                <tspan x="44.3751999" y="425.890575">2</tspan>
            </text>
            <text id="3" font-family="MesloLGS-NF-Regular, MesloLGS NF" font-size="58.0540719" font-weight="normal" letter-spacing="4.00372939" fill="#575757">
                <tspan x="44.3751999" y="542.730419">3</tspan>
            </text>
            <text id="4" font-family="MesloLGS-NF-Regular, MesloLGS NF" font-size="58.0540719" font-weight="normal" letter-spacing="4.00372939" fill="#575757">
                <tspan x="44.3751999" y="658.83542">4</tspan>
            </text>
            <text id="5" font-family="MesloLGS-NF-Regular, MesloLGS NF" font-size="58.0540719" font-weight="normal" letter-spacing="4.00372939" fill="#575757">
                <tspan x="44.3751999" y="773.470738">5</tspan>
            </text>
            <path d="M3.86884807,191.271052 L631.041337,191.271052 C633.178829,191.271052 634.911609,189.538272 634.911609,187.40078 L634.911609,83.8976109 C634.911609,73.2101514 643.575506,64.5462536 654.262966,64.5462536 L918.86005,64.5462536 C929.54751,64.5462536 938.211407,73.2101514 938.211407,83.8976109 L938.211407,187.40078 C938.211407,189.538272 939.944187,191.271052 942.081679,191.271052 L1043.07283,191.271052 L1043.07283,191.271052 L3.86884807,191.271052 Z" id="Line" stroke="#787878" stroke-width="3.99165" stroke-linecap="square"></path>
            <text id="scss" font-family="SFProText-Regular, SF Pro Text" font-size="50.3135289" font-weight="normal" letter-spacing="3.46989891" fill="#A6A6A6">
                <tspan x="726.449561" y="143.529432">scss</tspan>
            </text>
            <text id=".main-btn-{-display:" font-family="MesloLGS-NF-Bold, MesloLGS NF" font-size="58.0540719" font-weight="bold" line-spacing="116.108144" letter-spacing="4.00372939">
                <tspan x="184.330986" y="288.463992" fill="#E3E3E3">.</tspan>
                <tspan x="223.286215" y="288.463992" fill="#E0C3AB">main-btn</tspan>
                <tspan x="534.928044" y="288.463992" fill="#E3E3E3"> {</tspan>
                <tspan x="184.330986" y="404.572136" fill="#E3E3E3">   display: </tspan>
                <tspan x="651.79373" y="404.572136" fill="#DDBDF7">flex</tspan>
                <tspan x="807.614645" y="404.572136" fill="#E3E3E3">;</tspan>
                <tspan x="184.330986" y="520.680279" fill="#E3E3E3">   border: 2</tspan>
                <tspan x="651.79373" y="520.680279" fill="#A6D3AE">px</tspan>
                <tspan x="729.704188" y="520.680279" fill="#E3E3E3"> #fff</tspan>
                <tspan x="184.330986" y="636.788423" fill="#E3E3E3">}</tspan>
            </text>
            <g id="Mac-OS-Windows-Control-Buttons" transform="translate(46.426177, 73.417171)">
                <ellipse id="Oval" fill="#FF5F4B" cx="26.1147245" cy="26.0824162" rx="26.1147245" ry="26.0824162"></ellipse>
                <ellipse id="Oval-Copy" fill="#FFBD02" cx="111.229382" cy="26.0824162" rx="26.1147245" ry="26.0824162"></ellipse>
                <ellipse id="Oval-Copy-2" fill="#00D000" cx="196.34404" cy="26.0824162" rx="26.1147245" ry="26.0824162"></ellipse>
            </g>
        </g>
    </g>
</svg>