<?xml version="1.0" encoding="utf-8"?>
<!-- Generator: Adobe Illustrator 22.0.1, SVG Export Plug-In . SVG Version: 6.00 Build 0)  -->
<svg version="1.1" id="Layer_1" xmlns="http://www.w3.org/2000/svg" xmlns:xlink="http://www.w3.org/1999/xlink" x="0px" y="0px"
	 viewBox="0 0 1047 1065.5" style="enable-background:new 0 0 1047 1065.5;" xml:space="preserve">
<style type="text/css">
	.st0{fill:#0B0B0B;stroke:#C2C2C2;stroke-width:3.9917;}
	.st1{fill:#1F1F1F;}
	.st2{fill:#E3E3E3;}
	.st3{font-family:'MesloLGS-NF-Bold';}
	.st4{font-size:58.0541px;}
	.st5{letter-spacing:3;}
	.st6{fill:#5594C6;}
	.st7{fill:#575757;}
	.st8{font-family:'MesloLGS-NF-Regular';}
	.st9{fill:none;stroke:#787878;stroke-width:3.9917;stroke-linecap:square;}
	.st10{fill:#A6A6A6;}
	.st11{font-family:'SFProText-Regular';}
	.st12{font-size:50.3135px;}
	.st13{fill:#FF5F4B;}
	.st14{fill:#FFBD02;}
	.st15{fill:#00D000;}
</style>
<title>JS Window</title>
<g id="HOME">
	<g id="Design-Elements" transform="translate(-988.000000, -332.000000)">
		<g id="Code-Windows" transform="translate(0.000000, 0.000000)">
			<g id="JS-Window" transform="translate(988.000000, 332.000000)">
				<path id="Rectangle" class="st0" d="M33,2H1014c17.1,0,31,13.9,31,31v999.6c0,17.1-13.9,31-31,31H33c-17.1,0-31-13.9-31-31V33
					C2,15.9,15.9,2,33,2z"/>
				<path id="Code-Count-Side-Bar" class="st1" d="M3.9,193.2h108.3v867.1H38.7c-19.2,0-34.8-15.6-34.8-34.8V193.2L3.9,193.2z"/>
				<g id="code-text-body" transform="translate(184.330986, 349.038677)">
					<text transform="matrix(1 0 0 1 0 57)" class="st2 st3 st4 st5">export default </text>
					<text transform="matrix(1 0 0 1 0 173.1081)" class="st2 st3 st4 st5">function({ data }) { </text>
					<text transform="matrix(1 0 0 1 0 289.2163)" class="st2 st3 st4 st5">return &lt;</text>
					<text transform="matrix(1 0 0 1 322.9716 289.2163)" class="st6 st3 st4 st5">Layout</text>
					<text transform="matrix(1 0 0 1 565.2189 289.2163)" class="st2 st3 st4 st5">&gt;</text>
					<text transform="matrix(1 0 0 1 0 521.4326)" class="st2 st3 st4 st5">&lt;/</text>
					<text transform="matrix(1 0 0 1 80.9717 521.4326)" class="st6 st3 st4 st5">Layout</text>
					<text transform="matrix(1 0 0 1 324.2192 521.4326)" class="st2 st3 st4 st5">&gt;</text>
				</g>
				<text transform="matrix(1 0 0 1 44.3584 315.6643)" class="st7 st8 st4 st5">1</text>
				<text transform="matrix(1 0 0 1 44.3752 425.8906)" class="st7 st8 st4 st5">2</text>
				<text transform="matrix(1 0 0 1 44.3752 542.7304)" class="st7 st8 st4 st5">3</text>
				<text transform="matrix(1 0 0 1 44.3752 658.8354)" class="st7 st8 st4 st5">4</text>
				<text transform="matrix(1 0 0 1 44.3752 773.4708)" class="st7 st8 st4 st5">5</text>
				<text transform="matrix(1 0 0 1 44.3752 889.5757)" class="st7 st8 st4 st5">6</text>
				<text transform="matrix(1 0 0 1 44.3752 1005.6807)" class="st7 st8 st4 st5">7</text>
				<path id="Line" class="st9" d="M3.9,191.3H631c2.1,0,3.9-1.7,3.9-3.9V83.9c0-10.7,8.7-19.4,19.4-19.4h264.6
					c10.7,0,19.4,8.7,19.4,19.4v103.5c0,2.1,1.7,3.9,3.9,3.9h101l0,0H3.9z"/>
				<text transform="matrix(1 0 0 1 679.4034 152.3297)" class="st10 st11 st12 st5">index.js</text>
				<g id="Mac-OS-Windows-Control-Buttons" transform="translate(46.426177, 73.417171)">
					<ellipse id="Oval" class="st13" cx="26.1" cy="26.1" rx="26.1" ry="26.1"/>
					<ellipse id="Oval-Copy" class="st14" cx="111.2" cy="26.1" rx="26.1" ry="26.1"/>
					<ellipse id="Oval-Copy-2" class="st15" cx="196.3" cy="26.1" rx="26.1" ry="26.1"/>
				</g>
			</g>
		</g>
	</g>
</g>
</svg>
